PathFileType	4	(X/Y/Z)	Patient4_TMGait_0pt6_02_left_18.trc.trc
DataRate	CameraRate	NumFrames	NumMarkers	Units	OrigDataRate	OrigDataStartFrame	OrigNumFrames
80.000000000000	80.000000000000	4	33	mm	80.000000000000	124	       141
Frame#	Time	Sacral			L.Shoulder			Chest			R.Shoulder			Neck			R.ASIS			L.ASIS			R.Thigh.Superior			R.Thigh.Lateral			R.Thigh.Inferior			R.Patella			L.Thigh.Superior			L.Thigh.Lateral			L.Thigh.Inferior			L.Patella			L.Shank.Superior			L.Shank.Lateral			L.Shank.Inferior			R.Shank.Superior			R.Shank.Lateral			R.Shank.Inferior			R.Heel			R.Midfoot.Superior			R.Midfoot.Lateral			R.Toe			L.Heel			L.Midfoot.Lateral			L.Midfoot.Superior			L.Toe			L.Elbow			L.Wrist			R.Elbow			R.Wrist			
		X1	Y1	Z1	X2	Y2	Z2	X3	Y3	Z3	X4	Y4	Z4	X5	Y5	Z5	X6	Y6	Z6	X7	Y7	Z7	X8	Y8	Z8	X9	Y9	Z9	X10	Y10	Z10	X11	Y11	Z11	X12	Y12	Z12	X13	Y13	Z13	X14	Y14	Z14	X15	Y15	Z15	X16	Y16	Z16	X17	Y17	Z17	X18	Y18	Z18	X19	Y19	Z19	X20	Y20	Z20	X21	Y21	Z21	X22	Y22	Z22	X23	Y23	Z23	X24	Y24	Z24	X25	Y25	Z25	X26	Y26	Z26	X27	Y27	Z27	X28	Y28	Z28	X29	Y29	Z29	X30	Y30	Z30	X31	Y31	Z31	X32	Y32	Z32	X33	Y33	Z33	

124	23.617500000000	744.681831286929	1004.035366857782	509.376054948686	917.950002746652	1420.105789479721	309.423119981876	1035.074327830087	1344.987448025764	457.263643502390	977.068541218131	1426.849446990215	637.605282410764	939.129148390552	1482.246746519881	458.955620993357	974.873146279440	930.329531220863	611.008780200030	942.696009811204	944.882083819775	336.220690076887	969.754420873575	718.217314024639	582.472002842231	865.225405550720	626.178001817240	644.839421371868	922.761825202943	559.586424155372	562.818933916174	901.187453758047	474.164785431731	564.997864937282	1014.866614264167	765.376231285087	366.796584060151	958.760924037101	634.039847043820	297.563077544496	1064.157642391075	576.836518590294	356.037048648105	1087.526871208654	510.731804079740	356.057151368437	1072.587714040710	438.080367223572	348.309964681570	1005.569631073885	306.208290371536	305.167722081419	1095.251205256811	210.138007262140	360.231560575750	860.789834956793	391.248627720368	572.607111313047	777.073933914451	299.356140875100	638.612188870459	797.426539657987	200.446255524482	570.518906015049	642.298653124484	44.708382793114	546.901008572437	816.340322233802	96.270047430671	572.592745796569	729.635644045108	36.841477449152	615.743538511764	937.318191630653	40.172884601840	592.732405044316	1010.994971229147	39.242424836297	408.374468803929	1081.294729399856	38.586565204342	324.940367767377	1158.224250023069	109.044837399889	342.816615509841	1288.286249592461	69.127471864413	311.399878571583	766.281978552785	1094.089820913224	224.818934053218	732.142330326344	835.925646343418	246.772425117213	1073.842958025809	1110.407958664496	775.257992547928	1306.652354654088	1149.297548483912	689.090314756631	
125	23.630000000000	746.269173009431	1003.027601122666	506.434293711143	917.632728725155	1419.571258806616	306.911330040159	1035.117882227909	1345.005902012835	454.808652984417	976.442705415753	1426.380593350517	635.203495868884	938.508280236089	1481.740109745426	456.501925344320	976.251547532047	929.487447232216	608.751161489317	945.072409168763	944.057250863535	334.062909649026	969.897017025921	717.001210964630	580.938473873812	864.017005943275	625.801607629567	643.053862719933	921.338928072443	558.484056575011	561.517264052514	898.934987200137	472.729775154377	563.664276044019	1017.161080681735	763.950595231451	365.208454026055	959.500850358085	632.753891432281	296.961399554503	1064.694990539671	575.329894352955	355.390356922424	1086.457381489739	508.240757829469	356.220748899124	1071.083642124651	435.263605719001	348.395834461189	1002.283437032724	304.227085741488	305.417846535718	1090.058789981325	207.029756060884	361.423274034710	857.377423632748	390.454054067392	571.516006109581	772.308937659944	299.859509991863	637.789002871069	791.494604757312	200.412178063279	570.116352334409	634.811238171186	45.637965610110	547.024215393444	809.149490981325	96.382315741410	572.648285713713	722.191030247893	37.125181198469	615.729093166166	929.885729505634	39.850242296093	592.810779257415	1001.795248384411	38.612144548761	409.597180099162	1072.006054533229	37.118341836742	325.934104226980	1151.024702943061	105.050640439817	344.820448544499	1280.260545379995	61.725592975307	312.740950962360	765.430281730441	1093.943406055733	222.583025803744	732.197261413003	835.523916367314	244.377589312174	1071.829236518688	1108.989750638238	772.717036115845	1304.503762158497	1148.490534999786	686.493627741222	
126	23.642500000000	747.795304611771	1002.345887368909	503.509430135061	917.449270351365	1419.217087433845	304.266878780472	1035.296183178493	1345.213064640738	452.225980823466	976.040954546974	1426.231646762835	632.636351108116	938.056748548299	1481.466267361643	453.881501630806	977.556465686205	928.818698198216	606.362156109923	947.327201616680	943.562876709545	331.811262549824	970.256137972714	715.996943146803	579.276886407566	863.265577635970	625.477191700615	641.134530389781	920.551480493601	557.527314939588	560.070491194790	897.485722616903	471.209559402230	562.328840577602	1019.336919901926	762.893296145589	363.686542840795	960.376908435837	632.013745587616	296.109135602401	1065.190303374788	574.230092122338	354.716677221414	1085.339367646512	506.239250225876	356.267216885113	1069.584434473296	432.981290789419	348.282426200991	999.253452438098	302.769471024412	305.166197411673	1085.034308545952	204.511362802878	362.307516238869	854.549526061446	389.684904991822	570.386606852163	767.935243166475	300.583884506060	636.887739321344	785.865797984416	200.546782836929	569.732368302565	627.363862967580	47.021998729171	547.175050520088	802.140224520812	96.531366106148	572.729412388621	714.783088225008	37.596473526871	615.726303434346	922.481055184002	39.503658427530	592.875879311966	993.025517541780	38.153697559437	410.388510317454	1063.217073857649	36.113655476216	326.572860498259	1143.886612493585	101.953701479054	346.472500562232	1272.464115658092	55.945381479715	313.898117173605	765.340539741884	1093.590972723540	220.208880845731	733.290789271696	834.879566353157	241.572572814074	1069.400739326816	1107.781808366974	770.334710272847	1302.271305746212	1146.674496811034	684.323234349273	
127	23.655000000000	749.209929065368	1002.056238469198	500.629984567850	917.417333211467	1419.089324646707	301.506277438184	1035.608190319696	1345.632093134300	449.531267594060	975.894926128941	1426.464039406487	629.908760272258	937.807315182840	1481.474382741575	451.101383126814	978.724588834288	928.403169051014	603.857117899448	949.380940831854	943.447099814720	329.459928977593	970.848017656306	715.282771188962	577.477723547151	863.078366650660	625.219181689680	639.106213394698	920.548317533701	556.757547506792	558.500984916311	897.039665956096	469.607076279552	561.075108966783	1021.320670774433	762.287820700785	362.202193032195	961.324602135682	631.846073562712	294.991864747433	1065.561533639230	573.557874234544	353.958141434024	1084.138444205202	504.770488430478	356.117473797305	1068.028382183469	431.270909518063	347.941619340880	996.395439484097	301.867083788019	304.433867299890	1080.134543591759	202.625395652651	362.851811536896	852.457427319298	388.956231889870	569.269608059004	764.077653253534	301.589642205466	635.935840820411	780.645576100249	200.907383582881	569.400314846672	620.008021046104	49.010154513143	547.355505961404	795.377664141380	96.731344403277	572.849320958320	707.438431167557	38.337516866666	615.736108079151	915.104352954972	39.143548636828	592.917164263750	984.756727246261	37.862268303891	410.799473542246	1054.973925850876	35.520811355871	326.889688980370	1136.826873723082	99.775733490963	347.700079837229	1264.926737800457	51.859348836269	314.791654850616	766.047726129460	1093.075660025811	217.691072583700	735.448712499469	834.047295071612	238.366934509476	1066.523818008367	1106.855246828314	768.085024239488	1299.910595168482	1143.848328800570	682.564207759099	
